<svg xmlns="http://www.w3.org/2000/svg" version="1.1" xmlns:xlink="http://www.w3.org/1999/xlink" width="32" height="32"><svg width="32" height="32" viewBox="0 0 32 32" fill="none" xmlns="http://www.w3.org/2000/svg">
<path d="M22.1489 19.4393H25.6901L32 32H28.33L22.1489 19.4393Z" fill="black"></path>
<path d="M15.9034 0L14.1006 3.43925L17.7706 10.6168C12.8363 10.2113 10.5367 10.8198 9.07844 13.757C7.62021 16.6942 8.07713 21.711 12.9416 23.1776H17.0624C20.5392 23.1776 19.831 28.785 17.0624 28.2617H5.34406L7.79074 23.1776H4.37827L0 32H17.7706C24.7887 30.2056 23.3722 20.5607 17.7706 19.4393H12.9416C10.9457 18.6916 10.8169 15.028 12.9416 14.2804H17.7706H23.0503L15.9034 0Z" fill="black"></path>
<path d="M22.1489 19.4393H25.6901L32 32H28.33L22.1489 19.4393Z" stroke="white"></path>
<path d="M15.9034 0L14.1006 3.43925L17.7706 10.6168C12.8363 10.2113 10.5367 10.8198 9.07844 13.757C7.62021 16.6942 8.07713 21.711 12.9416 23.1776H17.0624C20.5392 23.1776 19.831 28.785 17.0624 28.2617H5.34406L7.79074 23.1776H4.37827L0 32H17.7706C24.7887 30.2056 23.3722 20.5607 17.7706 19.4393H12.9416C10.9457 18.6916 10.8169 15.028 12.9416 14.2804H17.7706H23.0503L15.9034 0Z" stroke="white"></path>
</svg><style>@media (prefers-color-scheme: light) { :root { filter: none; } }
@media (prefers-color-scheme: dark) { :root { filter: none; } }
</style></svg>