<svg width="150" height="50" viewBox="0 0 150 50" fill="none" xmlns="http://www.w3.org/2000/svg">
<path d="M30.7646 28.2243H34.0845L40 40H36.5594L30.7646 28.2243Z" fill="black"/>
<path d="M24.9094 10L23.2193 13.2243L26.6599 19.9533C22.0341 19.5731 19.8781 20.1436 18.511 22.8972C17.1439 25.6508 17.5723 30.3541 22.1328 31.729H25.996C29.2555 31.729 28.5915 36.986 25.996 36.4953H15.0101L17.3038 31.729H14.1046L10 40H26.6599C33.2394 38.3178 31.9115 29.2757 26.6599 28.2243H22.1328C20.2616 27.5234 20.1408 24.0888 22.1328 23.3879H26.6599H31.6097L24.9094 10Z" fill="black"/>
<path d="M30.7646 28.2243H34.0845L40 40H36.5594L30.7646 28.2243Z" stroke="white"/>
<path d="M24.9094 10L23.2193 13.2243L26.6599 19.9533C22.0341 19.5731 19.8781 20.1436 18.511 22.8972C17.1439 25.6508 17.5723 30.3541 22.1328 31.729H25.996C29.2555 31.729 28.5915 36.986 25.996 36.4953H15.0101L17.3038 31.729H14.1046L10 40H26.6599C33.2394 38.3178 31.9115 29.2757 26.6599 28.2243H22.1328C20.2616 27.5234 20.1408 24.0888 22.1328 23.3879H26.6599H31.6097L24.9094 10Z" stroke="white"/>
<path d="M46.7617 37V28.2695H50.1953C50.8594 28.2695 51.4238 28.3965 51.8887 28.6504C52.3574 28.9043 52.7148 29.2539 52.9609 29.6992C53.207 30.1445 53.3301 30.6562 53.3301 31.2344C53.3301 31.8125 53.2051 32.3223 52.9551 32.7637C52.7051 33.2051 52.3438 33.5508 51.8711 33.8008C51.3984 34.0469 50.8262 34.1699 50.1543 34.1699H48.6016V37H46.7617ZM48.6016 32.6934H49.8496C50.3848 32.6934 50.7812 32.5586 51.0391 32.2891C51.3008 32.0156 51.4316 31.6641 51.4316 31.2344C51.4316 30.7969 51.3008 30.4453 51.0391 30.1797C50.7773 29.9141 50.3789 29.7812 49.8438 29.7812H48.6016V32.6934ZM60.3829 37.1172C59.6095 37.1172 58.9141 36.9414 58.297 36.5898C57.6798 36.2383 57.1915 35.7285 56.8321 35.0605C56.4727 34.3926 56.293 33.5859 56.293 32.6406C56.293 31.6875 56.4727 30.877 56.8321 30.209C57.1915 29.541 57.6798 29.0312 58.297 28.6797C58.9141 28.3281 59.6095 28.1523 60.3829 28.1523C61.1563 28.1523 61.8497 28.3281 62.463 28.6797C63.0802 29.0312 63.5684 29.541 63.9278 30.209C64.2872 30.877 64.4669 31.6875 64.4669 32.6406C64.4669 33.5938 64.2872 34.4043 63.9278 35.0723C63.5684 35.7363 63.0802 36.2441 62.463 36.5957C61.8497 36.9434 61.1563 37.1172 60.3829 37.1172ZM58.1622 32.6406C58.1622 33.5625 58.3634 34.2676 58.7657 34.7559C59.172 35.2441 59.711 35.4883 60.3829 35.4883C61.0509 35.4883 61.586 35.2441 61.9884 34.7559C62.3946 34.2676 62.5977 33.5625 62.5977 32.6406C62.5977 31.7148 62.3946 31.0078 61.9884 30.5195C61.586 30.0273 61.0509 29.7812 60.3829 29.7812C59.711 29.7812 59.172 30.0273 58.7657 30.5195C58.3634 31.0078 58.1622 31.7148 58.1622 32.6406ZM67.758 37V28.2695H71.1916C72.1838 28.2695 72.9533 28.5293 73.5002 29.0488C74.0509 29.5684 74.3263 30.2598 74.3263 31.123C74.3263 31.7207 74.1935 32.2324 73.9279 32.6582C73.6623 33.0801 73.2814 33.3965 72.7853 33.6074L74.6369 37H72.5978L70.9455 33.9062H69.5978V37H67.758ZM69.5978 32.4238H70.8459C71.9005 32.4238 72.4279 31.9902 72.4279 31.123C72.4279 30.6895 72.297 30.3574 72.0353 30.127C71.7736 29.8965 71.3752 29.7812 70.84 29.7812H69.5978V32.4238ZM77.2307 29.793V28.2695H84.3967V29.793H81.7366V37H79.8967V29.793H77.2307ZM92.2211 37V28.2695H97.9984V29.793H94.0609V32.1895H97.6117V33.6836H94.0609V37H92.2211ZM105.092 37.1172C104.319 37.1172 103.624 36.9414 103.006 36.5898C102.389 36.2383 101.901 35.7285 101.541 35.0605C101.182 34.3926 101.002 33.5859 101.002 32.6406C101.002 31.6875 101.182 30.877 101.541 30.209C101.901 29.541 102.389 29.0312 103.006 28.6797C103.624 28.3281 104.319 28.1523 105.092 28.1523C105.866 28.1523 106.559 28.3281 107.172 28.6797C107.79 29.0312 108.278 29.541 108.637 30.209C108.997 30.877 109.176 31.6875 109.176 32.6406C109.176 33.5938 108.997 34.4043 108.637 35.0723C108.278 35.7363 107.79 36.2441 107.172 36.5957C106.559 36.9434 105.866 37.1172 105.092 37.1172ZM102.872 32.6406C102.872 33.5625 103.073 34.2676 103.475 34.7559C103.881 35.2441 104.42 35.4883 105.092 35.4883C105.76 35.4883 106.295 35.2441 106.698 34.7559C107.104 34.2676 107.307 33.5625 107.307 32.6406C107.307 31.7148 107.104 31.0078 106.698 30.5195C106.295 30.0273 105.76 29.7812 105.092 29.7812C104.42 29.7812 103.881 30.0273 103.475 30.5195C103.073 31.0078 102.872 31.7148 102.872 32.6406ZM112.467 37V28.2695H114.307V35.4766H118.051V37H112.467ZM123.048 28.2695V37H121.208V28.2695H123.048ZM130.423 37.1172C129.649 37.1172 128.954 36.9414 128.337 36.5898C127.719 36.2383 127.231 35.7285 126.872 35.0605C126.512 34.3926 126.333 33.5859 126.333 32.6406C126.333 31.6875 126.512 30.877 126.872 30.209C127.231 29.541 127.719 29.0312 128.337 28.6797C128.954 28.3281 129.649 28.1523 130.423 28.1523C131.196 28.1523 131.889 28.3281 132.503 28.6797C133.12 29.0312 133.608 29.541 133.967 30.209C134.327 30.877 134.507 31.6875 134.507 32.6406C134.507 33.5938 134.327 34.4043 133.967 35.0723C133.608 35.7363 133.12 36.2441 132.503 36.5957C131.889 36.9434 131.196 37.1172 130.423 37.1172ZM128.202 32.6406C128.202 33.5625 128.403 34.2676 128.805 34.7559C129.212 35.2441 129.751 35.4883 130.423 35.4883C131.091 35.4883 131.626 35.2441 132.028 34.7559C132.434 34.2676 132.637 33.5625 132.637 32.6406C132.637 31.7148 132.434 31.0078 132.028 30.5195C131.626 30.0273 131.091 29.7812 130.423 29.7812C129.751 29.7812 129.212 30.0273 128.805 30.5195C128.403 31.0078 128.202 31.7148 128.202 32.6406Z" fill="black"/>
</svg>
